G04 ================== begin FILE IDENTIFICATION RECORD ==================*
G04 Layout Name:  C:/Users/user/Desktop/workspace/ex2_rlc/allegro/ex2_rlc.brd*
G04 Film Name:    DrillDraw*
G04 File Format:  Gerber RS274X*
G04 File Origin:  Cadence Allegro 17.2-S038*
G04 Origin Date:  Thu Jul 11 11:35:57 2019*
G04 *
G04 Layer:  MANUFACTURING/NCLEGEND-1-2*
G04 Layer:  BOARD GEOMETRY/DESIGN_OUTLINE*
G04 *
G04 Offset:    (0.000 0.000)*
G04 Mirror:    No*
G04 Mode:      Positive*
G04 Rotation:  0*
G04 FullContactRelief:  No*
G04 UndefLineWidth:     0.100*
G04 ================== end FILE IDENTIFICATION RECORD ====================*
%FSLAX25Y25*MOMM*%
%IR0*IPPOS*OFA0.00000B0.00000*MIA0B0*SFA1.00000B1.00000*%
%AMMACRO11*
1,1,.1,-.508,.3175*
20,1,.1,-.508,.3175,-.500282,.405713,0.0*
1,1,.1,-.500282,.405713*
20,1,.1,-.500282,.405713,-.477364,.491246,0.0*
1,1,.1,-.477364,.491246*
20,1,.1,-.477364,.491246,-.439941,.5715,0.0*
1,1,.1,-.439941,.5715*
20,1,.1,-.439941,.5715,-.389151,.644036,0.0*
1,1,.1,-.389151,.644036*
20,1,.1,-.389151,.644036,-.326536,.706651,0.0*
1,1,.1,-.326536,.706651*
20,1,.1,-.326536,.706651,-.254,.757441,0.0*
1,1,.1,-.254,.757441*
20,1,.1,-.254,.757441,-.173746,.794864,0.0*
1,1,.1,-.173746,.794864*
20,1,.1,-.173746,.794864,-.088213,.817782,0.0*
1,1,.1,-.088213,.817782*
20,1,.1,-.088213,.817782,0.0,.8255,0.0*
1,1,.1,0.0,.8255*
20,1,.1,0.0,.8255,.088213,.817782,0.0*
1,1,.1,.088213,.817782*
20,1,.1,.088213,.817782,.173746,.794864,0.0*
1,1,.1,.173746,.794864*
20,1,.1,.173746,.794864,.254,.757441,0.0*
1,1,.1,.254,.757441*
20,1,.1,.254,.757441,.326536,.706651,0.0*
1,1,.1,.326536,.706651*
20,1,.1,.326536,.706651,.389151,.644036,0.0*
1,1,.1,.389151,.644036*
20,1,.1,.389151,.644036,.439941,.5715,0.0*
1,1,.1,.439941,.5715*
20,1,.1,.439941,.5715,.477364,.491246,0.0*
1,1,.1,.477364,.491246*
20,1,.1,.477364,.491246,.500282,.405713,0.0*
1,1,.1,.500282,.405713*
20,1,.1,.500282,.405713,.508,.3175,0.0*
1,1,.1,.508,.3175*
20,1,.1,.508,.3175,.508,-.3175,0.0*
1,1,.1,.508,-.3175*
20,1,.1,.508,-.3175,.500282,-.405713,0.0*
1,1,.1,.500282,-.405713*
20,1,.1,.500282,-.405713,.477364,-.491246,0.0*
1,1,.1,.477364,-.491246*
20,1,.1,.477364,-.491246,.439941,-.5715,0.0*
1,1,.1,.439941,-.5715*
20,1,.1,.439941,-.5715,.389151,-.644036,0.0*
1,1,.1,.389151,-.644036*
20,1,.1,.389151,-.644036,.326536,-.706651,0.0*
1,1,.1,.326536,-.706651*
20,1,.1,.326536,-.706651,.254,-.757441,0.0*
1,1,.1,.254,-.757441*
20,1,.1,.254,-.757441,.173746,-.794864,0.0*
1,1,.1,.173746,-.794864*
20,1,.1,.173746,-.794864,.088213,-.817782,0.0*
1,1,.1,.088213,-.817782*
20,1,.1,.088213,-.817782,0.0,-.8255,0.0*
1,1,.1,0.0,-.8255*
20,1,.1,0.0,-.8255,-.088213,-.817782,0.0*
1,1,.1,-.088213,-.817782*
20,1,.1,-.088213,-.817782,-.173746,-.794864,0.0*
1,1,.1,-.173746,-.794864*
20,1,.1,-.173746,-.794864,-.254,-.757441,0.0*
1,1,.1,-.254,-.757441*
20,1,.1,-.254,-.757441,-.326536,-.706651,0.0*
1,1,.1,-.326536,-.706651*
20,1,.1,-.326536,-.706651,-.389151,-.644036,0.0*
1,1,.1,-.389151,-.644036*
20,1,.1,-.389151,-.644036,-.439941,-.5715,0.0*
1,1,.1,-.439941,-.5715*
20,1,.1,-.439941,-.5715,-.477364,-.491246,0.0*
1,1,.1,-.477364,-.491246*
20,1,.1,-.477364,-.491246,-.500282,-.405713,0.0*
1,1,.1,-.500282,-.405713*
20,1,.1,-.500282,-.405713,-.508,-.3175,0.0*
1,1,.1,-.508,-.3175*
20,1,.1,-.508,-.3175,-.508,.3175,0.0*
1,1,.1,-.508,.3175*
%
%ADD11MACRO11*%
%AMMACRO12*
1,1,.1,.635,0.0*
20,1,.1,.635,0.0,.3175,.549926,0.0*
1,1,.1,.3175,.549926*
20,1,.1,.3175,.549926,-.3175,.549926,0.0*
1,1,.1,-.3175,.549926*
20,1,.1,-.3175,.549926,-.635,0.0,0.0*
1,1,.1,-.635,0.0*
20,1,.1,-.635,0.0,-.3175,-.549926,0.0*
1,1,.1,-.3175,-.549926*
20,1,.1,-.3175,-.549926,.3175,-.549926,0.0*
1,1,.1,.3175,-.549926*
20,1,.1,.3175,-.549926,.635,0.0,0.0*
1,1,.1,.635,0.0*
%
%ADD12MACRO12*%
%AMMACRO10*
1,1,.1,-.666,-.952*
20,1,.1,-.666,-.952,.667,.953,0.0*
1,1,.1,.667,.953*
1,1,.1,-.666,.953*
20,1,.1,-.666,.953,.667,-.952,0.0*
1,1,.1,.667,-.952*
%
%ADD10MACRO10*%
%ADD13C,.1*%
G75*
%LPD*%
G75*
G54D10*
X571500Y571500D03*
X635000Y4381500D03*
X6477000Y508000D03*
X6350000Y4381500D03*
X8571000Y239000D03*
G54D11*
X1524000Y3302000D03*
X2540000D03*
X3556000Y1270000D03*
Y2286000D03*
X8571000Y874000D03*
G54D12*
X2286000Y1778000D03*
X2032000D03*
X5334000Y1524000D03*
Y1778000D03*
X8571000Y1509000D03*
G54D13*
G01X0Y0D02*
Y5000000D01*
X7000000D01*
Y0D01*
X0D01*
G01X7429500Y-78500D02*
Y3746500D01*
X20025400D01*
Y-78500D01*
X7429500D01*
G01Y556500D02*
X20025400D01*
G01X7429500Y1826500D02*
X20025400D01*
G01X7429500Y1191500D02*
X20025400D01*
G01X7708900Y1985300D02*
Y2302800D01*
X7858500D01*
G01X7803400Y2149300D02*
X7708900D01*
G01X8051400Y2302800D02*
X8145800D01*
G01X8098600D02*
Y1985300D01*
G01X8051400D02*
X8145800D01*
G01X8437100Y2144000D02*
X8515900D01*
Y2048800D01*
X8492200Y2017000D01*
X8464700Y1995900D01*
X8425300Y1985300D01*
X8385900Y1995900D01*
X8358400Y2017000D01*
X8334800Y2048800D01*
X8319000Y2085800D01*
X8311100Y2128200D01*
Y2165200D01*
X8319000Y2197000D01*
X8334800Y2234000D01*
X8358400Y2265800D01*
X8382000Y2286900D01*
X8413500Y2302800D01*
X8441100D01*
X8472500Y2292200D01*
X8496200Y2271000D01*
G01X8641800Y2302800D02*
Y2075300D01*
X8657500Y2027600D01*
X8689000Y1995900D01*
X8728400Y1985300D01*
X8767800Y1995900D01*
X8799300Y2027600D01*
X8815000Y2075300D01*
Y2302800D01*
G01X8964600Y1985300D02*
Y2302800D01*
X9063000D01*
X9094500Y2286900D01*
X9114200Y2265800D01*
X9122000Y2223400D01*
X9114200Y2181100D01*
X9090500Y2154600D01*
X9063000Y2138800D01*
X8964600D01*
G01X9063000D02*
X9122000Y1985300D01*
G01X9436900D02*
X9279500D01*
Y2302800D01*
X9436900D01*
G01X9373900Y2149300D02*
X9279500D01*
G01X7429500Y2461500D02*
X20025400D01*
G01X7429500Y3096500D02*
X20025400D01*
G01X9377800Y2620300D02*
X9476200Y2937800D01*
X9574600Y2620300D01*
G01X9539200Y2731400D02*
X9413200D01*
G01X9712400Y2937800D02*
Y2620300D01*
X9869800D01*
G01X10027300Y2937800D02*
Y2620300D01*
X10184700D01*
G01X10649200Y2937800D02*
Y2710300D01*
X10664900Y2662600D01*
X10696400Y2630900D01*
X10735800Y2620300D01*
X10775200Y2630900D01*
X10806700Y2662600D01*
X10822400Y2710300D01*
Y2937800D01*
G01X10960200Y2620300D02*
Y2937800D01*
X11141200Y2620300D01*
Y2937800D01*
G01X11318400D02*
X11412800D01*
G01X11365600D02*
Y2620300D01*
G01X11318400D02*
X11412800D01*
G01X11680500Y2937800D02*
Y2620300D01*
G01X11590000Y2937800D02*
X11771000D01*
G01X11912700Y2662600D02*
X11944200Y2636200D01*
X11979700Y2620300D01*
X12011100D01*
X12042600Y2636200D01*
X12066300Y2662600D01*
X12078100Y2699700D01*
X12070200Y2736700D01*
X12050500Y2768500D01*
X12015100Y2789600D01*
X11967800Y2800200D01*
X11940300Y2821400D01*
X11928500Y2858400D01*
X11936400Y2895500D01*
X11956000Y2921900D01*
X11983600Y2937800D01*
X12011100D01*
X12038700Y2927200D01*
X12062300Y2900800D01*
G01X12526800Y2620300D02*
X12625200Y2937800D01*
X12723600Y2620300D01*
G01X12688200Y2731400D02*
X12562200D01*
G01X12861400Y2620300D02*
Y2937800D01*
X12959800D01*
X12991300Y2921900D01*
X13011000Y2900800D01*
X13018800Y2858400D01*
X13011000Y2816100D01*
X12987300Y2789600D01*
X12959800Y2773800D01*
X12861400D01*
G01X12959800D02*
X13018800Y2620300D01*
G01X13333700D02*
X13176300D01*
Y2937800D01*
X13333700D01*
G01X13270700Y2784300D02*
X13176300D01*
G01X13837600Y2937800D02*
X13932000D01*
G01X13884800D02*
Y2620300D01*
G01X13837600D02*
X13932000D01*
G01X14109200D02*
Y2937800D01*
X14290200Y2620300D01*
Y2937800D01*
G01X14727100Y2620300D02*
Y2937800D01*
X14829500Y2673200D01*
X14931900Y2937800D01*
Y2620300D01*
G01X15097200Y2937800D02*
X15191600D01*
G01X15144400D02*
Y2620300D01*
G01X15097200D02*
X15191600D01*
G01X15380600Y2937800D02*
Y2620300D01*
X15538000D01*
G01X15695500Y2937800D02*
Y2620300D01*
X15852900D01*
G01X16041900Y2937800D02*
X16136300D01*
G01X16089100D02*
Y2620300D01*
G01X16041900D02*
X16136300D01*
G01X16301600D02*
Y2937800D01*
X16404000Y2673200D01*
X16506400Y2937800D01*
Y2620300D01*
G01X16797600D02*
X16640200D01*
Y2937800D01*
X16797600D01*
G01X16734600Y2784300D02*
X16640200D01*
G01X17033800Y2937800D02*
Y2620300D01*
G01X16943300Y2937800D02*
X17124300D01*
G01X17427400Y2620300D02*
X17270000D01*
Y2937800D01*
X17427400D01*
G01X17364400Y2784300D02*
X17270000D01*
G01X17584900Y2620300D02*
Y2937800D01*
X17683300D01*
X17714800Y2921900D01*
X17734500Y2900800D01*
X17742300Y2858400D01*
X17734500Y2816100D01*
X17710800Y2789600D01*
X17683300Y2773800D01*
X17584900D01*
G01X17683300D02*
X17742300Y2620300D01*
G01X17895800Y2662600D02*
X17927300Y2636200D01*
X17962800Y2620300D01*
X17994200D01*
X18025700Y2636200D01*
X18049400Y2662600D01*
X18061200Y2699700D01*
X18053300Y2736700D01*
X18033600Y2768500D01*
X17998200Y2789600D01*
X17950900Y2800200D01*
X17923400Y2821400D01*
X17911600Y2858400D01*
X17919500Y2895500D01*
X17939100Y2921900D01*
X17966700Y2937800D01*
X17994200D01*
X18021800Y2927200D01*
X18045400Y2900800D01*
G01X9712500Y2461500D02*
Y-78500D01*
G01X9704500Y3270200D02*
Y3587700D01*
X9783200D01*
X9814700Y3571800D01*
X9838300Y3550700D01*
X9858000Y3518900D01*
X9873800Y3481900D01*
X9877700Y3428900D01*
X9873800Y3376000D01*
X9858000Y3339000D01*
X9838300Y3307200D01*
X9814700Y3286100D01*
X9783200Y3270200D01*
X9704500D01*
G01X10027300D02*
Y3587700D01*
X10125700D01*
X10157200Y3571800D01*
X10176900Y3550700D01*
X10184700Y3508300D01*
X10176900Y3466000D01*
X10153200Y3439500D01*
X10125700Y3423700D01*
X10027300D01*
G01X10125700D02*
X10184700Y3270200D01*
G01X10373700Y3587700D02*
X10468100D01*
G01X10420900D02*
Y3270200D01*
G01X10373700D02*
X10468100D01*
G01X10657100Y3587700D02*
Y3270200D01*
X10814500D01*
G01X10972000Y3587700D02*
Y3270200D01*
X11129400D01*
G01X11767100Y3561200D02*
X11743500Y3577100D01*
X11715900Y3587700D01*
X11684400D01*
X11649000Y3571800D01*
X11621500Y3545400D01*
X11601800Y3513600D01*
X11586000Y3460700D01*
X11582100Y3413100D01*
X11590000Y3365400D01*
X11601800Y3333700D01*
X11625400Y3301900D01*
X11652900Y3280800D01*
X11680500Y3270200D01*
X11708100D01*
X11735600Y3280800D01*
X11759200Y3296700D01*
X11778900Y3317800D01*
G01X11912700Y3270200D02*
Y3587700D01*
G01X12078100D02*
Y3270200D01*
G01Y3428900D02*
X11912700D01*
G01X12211900Y3270200D02*
X12310300Y3587700D01*
X12408700Y3270200D01*
G01X12373300Y3381300D02*
X12247300D01*
G01X12546500Y3270200D02*
Y3587700D01*
X12644900D01*
X12676400Y3571800D01*
X12696100Y3550700D01*
X12703900Y3508300D01*
X12696100Y3466000D01*
X12672400Y3439500D01*
X12644900Y3423700D01*
X12546500D01*
G01X12644900D02*
X12703900Y3270200D01*
G01X12940100Y3587700D02*
Y3270200D01*
G01X12849600Y3587700D02*
X13030600D01*
G01X13255000Y3259600D02*
X13247100Y3264900D01*
Y3275500D01*
X13255000Y3280800D01*
X13262900Y3275500D01*
Y3264900D01*
X13255000Y3259600D01*
G01Y3402500D02*
X13247100Y3407800D01*
Y3418400D01*
X13255000Y3423700D01*
X13262900Y3418400D01*
Y3407800D01*
X13255000Y3402500D01*
G01X13884800Y3587700D02*
Y3270200D01*
G01X13794300Y3587700D02*
X13975300D01*
G01X14199700Y3270200D02*
X14168200Y3275500D01*
X14140700Y3296700D01*
X14117000Y3328400D01*
X14101300Y3365400D01*
X14093400Y3407800D01*
Y3450100D01*
X14101300Y3492500D01*
X14117000Y3529500D01*
X14140700Y3561200D01*
X14168200Y3582400D01*
X14199700Y3587700D01*
X14231200Y3582400D01*
X14258700Y3561200D01*
X14282400Y3529500D01*
X14298100Y3492500D01*
X14306000Y3450100D01*
Y3407800D01*
X14298100Y3365400D01*
X14282400Y3328400D01*
X14258700Y3296700D01*
X14231200Y3275500D01*
X14199700Y3270200D01*
G01X14435900D02*
Y3587700D01*
X14530300D01*
X14561800Y3571800D01*
X14585500Y3534800D01*
X14593300Y3492500D01*
X14585500Y3450100D01*
X14565800Y3418400D01*
X14530300Y3402500D01*
X14435900D01*
G01X15144400Y3587700D02*
Y3270200D01*
G01X15089300Y3481900D02*
X15199500D01*
G01X15459300Y3270200D02*
X15435700Y3275500D01*
X15412100Y3296700D01*
X15396300Y3333700D01*
X15388400Y3376000D01*
X15396300Y3418400D01*
X15412100Y3455400D01*
X15435700Y3476600D01*
X15459300Y3481900D01*
X15482900Y3476600D01*
X15506500Y3455400D01*
X15522300Y3418400D01*
X15526200Y3376000D01*
X15522300Y3333700D01*
X15506500Y3296700D01*
X15482900Y3275500D01*
X15459300Y3270200D01*
G01X16120600Y3439500D02*
X16136300Y3455400D01*
X16148100Y3481900D01*
X16156000Y3518900D01*
X16148100Y3550700D01*
X16132400Y3571800D01*
X16104800Y3587700D01*
X15998600D01*
Y3270200D01*
X16128500D01*
X16156000Y3291400D01*
X16171800Y3323100D01*
X16179600Y3360200D01*
X16171800Y3397200D01*
X16148100Y3428900D01*
X16120600Y3439500D01*
X15998600D01*
G01X16404000Y3270200D02*
X16372500Y3275500D01*
X16345000Y3296700D01*
X16321300Y3328400D01*
X16305600Y3365400D01*
X16297700Y3407800D01*
Y3450100D01*
X16305600Y3492500D01*
X16321300Y3529500D01*
X16345000Y3561200D01*
X16372500Y3582400D01*
X16404000Y3587700D01*
X16435500Y3582400D01*
X16463000Y3561200D01*
X16486700Y3529500D01*
X16502400Y3492500D01*
X16510300Y3450100D01*
Y3407800D01*
X16502400Y3365400D01*
X16486700Y3328400D01*
X16463000Y3296700D01*
X16435500Y3275500D01*
X16404000Y3270200D01*
G01X16718900Y3587700D02*
Y3270200D01*
G01X16628400Y3587700D02*
X16809400D01*
G01X17033800D02*
Y3270200D01*
G01X16943300Y3587700D02*
X17124300D01*
G01X17348700Y3270200D02*
X17317200Y3275500D01*
X17289700Y3296700D01*
X17266000Y3328400D01*
X17250300Y3365400D01*
X17242400Y3407800D01*
Y3450100D01*
X17250300Y3492500D01*
X17266000Y3529500D01*
X17289700Y3561200D01*
X17317200Y3582400D01*
X17348700Y3587700D01*
X17380200Y3582400D01*
X17407700Y3561200D01*
X17431400Y3529500D01*
X17447100Y3492500D01*
X17455000Y3450100D01*
Y3407800D01*
X17447100Y3365400D01*
X17431400Y3328400D01*
X17407700Y3296700D01*
X17380200Y3275500D01*
X17348700Y3270200D01*
G01X17561200D02*
Y3587700D01*
X17663600Y3323100D01*
X17766000Y3587700D01*
Y3270200D01*
G01X10306800Y1985300D02*
Y2302800D01*
X10456400D01*
G01X10401300Y2149300D02*
X10306800D01*
G01X10649300Y2302800D02*
X10743700D01*
G01X10696500D02*
Y1985300D01*
G01X10649300D02*
X10743700D01*
G01X10920900D02*
Y2302800D01*
X11101900Y1985300D01*
Y2302800D01*
G01X11279100D02*
X11373500D01*
G01X11326300D02*
Y1985300D01*
G01X11279100D02*
X11373500D01*
G01X11558500Y2027600D02*
X11590000Y2001200D01*
X11625500Y1985300D01*
X11656900D01*
X11688400Y2001200D01*
X11712100Y2027600D01*
X11723900Y2064700D01*
X11716000Y2101700D01*
X11696300Y2133500D01*
X11660900Y2154600D01*
X11613600Y2165200D01*
X11586100Y2186400D01*
X11574300Y2223400D01*
X11582200Y2260500D01*
X11601800Y2286900D01*
X11629400Y2302800D01*
X11656900D01*
X11684500Y2292200D01*
X11708100Y2265800D01*
G01X11873400Y1985300D02*
Y2302800D01*
G01X12038800D02*
Y1985300D01*
G01Y2144000D02*
X11873400D01*
G01X12349700Y1985300D02*
X12192300D01*
Y2302800D01*
X12349700D01*
G01X12286700Y2149300D02*
X12192300D01*
G01X12499300Y1985300D02*
Y2302800D01*
X12578000D01*
X12609500Y2286900D01*
X12633100Y2265800D01*
X12652800Y2234000D01*
X12668600Y2197000D01*
X12672500Y2144000D01*
X12668600Y2091100D01*
X12652800Y2054100D01*
X12633100Y2022300D01*
X12609500Y2001200D01*
X12578000Y1985300D01*
X12499300D01*
G01X12782700Y1879500D02*
X13018900D01*
G01X13133000Y2027600D02*
X13164500Y2001200D01*
X13200000Y1985300D01*
X13231400D01*
X13262900Y2001200D01*
X13286600Y2027600D01*
X13298400Y2064700D01*
X13290500Y2101700D01*
X13270800Y2133500D01*
X13235400Y2154600D01*
X13188100Y2165200D01*
X13160600Y2186400D01*
X13148800Y2223400D01*
X13156700Y2260500D01*
X13176300Y2286900D01*
X13203900Y2302800D01*
X13231400D01*
X13259000Y2292200D01*
X13282600Y2265800D01*
G01X13483400Y2302800D02*
X13577800D01*
G01X13530600D02*
Y1985300D01*
G01X13483400D02*
X13577800D01*
G01X13770700Y2302800D02*
X13920300D01*
X13770700Y1985300D01*
X13920300D01*
G01X14239100D02*
X14081700D01*
Y2302800D01*
X14239100D01*
G01X14176100Y2149300D02*
X14081700D01*
G01X11554600Y143800D02*
X11578200Y106800D01*
X11609700Y85600D01*
X11645100Y80300D01*
X11676600Y85600D01*
X11708100Y112000D01*
X11727800Y143800D01*
X11731700Y175500D01*
X11723900Y212600D01*
X11696300Y239000D01*
X11668800Y249600D01*
X11633300D01*
G01X11668800D02*
X11692400Y265500D01*
X11712100Y292000D01*
X11719900Y323700D01*
X11712100Y355500D01*
X11692400Y381900D01*
X11656900Y397800D01*
X11621500Y392500D01*
X11586100Y371300D01*
G01X11956100Y69700D02*
X11948200Y75000D01*
Y85600D01*
X11956100Y90900D01*
X11964000Y85600D01*
Y75000D01*
X11956100Y69700D01*
G01X12271000Y80300D02*
Y397800D01*
X12223800Y334300D01*
G01Y80300D02*
X12318200D01*
G01X12578000D02*
X12585900Y149100D01*
X12597700Y207300D01*
X12613500Y260200D01*
X12633100Y318400D01*
X12664600Y397800D01*
X12507200D01*
G01X12814200Y127900D02*
X12837800Y101500D01*
X12865400Y85600D01*
X12900800Y80300D01*
X12936200Y90900D01*
X12963800Y112000D01*
X12983500Y149100D01*
X12987400Y191400D01*
X12979500Y233800D01*
X12959800Y260200D01*
X12932300Y281400D01*
X12904700Y286700D01*
X12877200Y281400D01*
X12841800Y260200D01*
X12853600Y397800D01*
X12959800D01*
G01X11641200Y715300D02*
Y1032800D01*
X11594000Y969300D01*
G01Y715300D02*
X11688400D01*
G01X11956100Y704700D02*
X11948200Y710000D01*
Y720600D01*
X11956100Y725900D01*
X11964000Y720600D01*
Y710000D01*
X11956100Y704700D01*
G01X12271000Y1032800D02*
X12239500Y1022200D01*
X12215900Y995800D01*
X12200100Y964000D01*
X12188300Y921700D01*
X12184400Y874000D01*
X12188300Y826400D01*
X12200100Y784100D01*
X12215900Y752300D01*
X12239500Y725900D01*
X12271000Y715300D01*
X12302500Y725900D01*
X12326100Y752300D01*
X12341900Y784100D01*
X12353700Y826400D01*
X12357600Y874000D01*
X12353700Y921700D01*
X12341900Y964000D01*
X12326100Y995800D01*
X12302500Y1022200D01*
X12271000Y1032800D01*
G01X12511100Y847600D02*
X12538700Y884600D01*
X12562300Y905800D01*
X12593800Y916400D01*
X12621300Y905800D01*
X12641000Y884600D01*
X12656800Y852900D01*
X12660700Y815800D01*
X12656800Y784100D01*
X12641000Y752300D01*
X12617400Y725900D01*
X12589800Y715300D01*
X12558300Y725900D01*
X12530800Y757600D01*
X12515000Y805300D01*
X12511100Y858200D01*
X12519000Y927000D01*
X12530800Y964000D01*
X12550500Y1001000D01*
X12578000Y1027500D01*
X12605600Y1032800D01*
X12633100Y1022200D01*
X12652800Y995800D01*
G01X12892900Y715300D02*
X12900800Y784100D01*
X12912600Y842300D01*
X12928400Y895200D01*
X12948000Y953400D01*
X12979500Y1032800D01*
X12822100D01*
G01X11641200Y1667700D02*
X11609700Y1657100D01*
X11586100Y1630700D01*
X11570300Y1598900D01*
X11558500Y1556600D01*
X11554600Y1508900D01*
X11558500Y1461300D01*
X11570300Y1419000D01*
X11586100Y1387200D01*
X11609700Y1360800D01*
X11641200Y1350200D01*
X11672700Y1360800D01*
X11696300Y1387200D01*
X11712100Y1419000D01*
X11723900Y1461300D01*
X11727800Y1508900D01*
X11723900Y1556600D01*
X11712100Y1598900D01*
X11696300Y1630700D01*
X11672700Y1657100D01*
X11641200Y1667700D01*
G01X11956100Y1339600D02*
X11948200Y1344900D01*
Y1355500D01*
X11956100Y1360800D01*
X11964000Y1355500D01*
Y1344900D01*
X11956100Y1339600D01*
G01X12204100Y1387200D02*
X12231600Y1360800D01*
X12263100Y1350200D01*
X12294600Y1360800D01*
X12322200Y1392500D01*
X12341900Y1440200D01*
X12349700Y1487800D01*
Y1546000D01*
X12341900Y1593600D01*
X12322200Y1635900D01*
X12298600Y1657100D01*
X12271000Y1667700D01*
X12239500Y1657100D01*
X12215900Y1635900D01*
X12200100Y1604200D01*
X12192300Y1561900D01*
X12200100Y1524800D01*
X12219800Y1487800D01*
X12243400Y1466600D01*
X12271000Y1461300D01*
X12302500Y1471900D01*
X12326100Y1498400D01*
X12349700Y1546000D01*
G01X12585900Y1350200D02*
Y1667700D01*
X12538700Y1604200D01*
G01Y1350200D02*
X12633100D01*
G01X12948000D02*
Y1667700D01*
X12802400Y1440200D01*
X12999200D01*
G01X14935800Y80300D02*
Y397800D01*
X15116800Y80300D01*
Y397800D01*
G01X15341200Y80300D02*
X15309700Y85600D01*
X15282200Y106800D01*
X15258500Y138500D01*
X15242800Y175500D01*
X15234900Y217900D01*
Y260200D01*
X15242800Y302600D01*
X15258500Y339600D01*
X15282200Y371300D01*
X15309700Y392500D01*
X15341200Y397800D01*
X15372700Y392500D01*
X15400200Y371300D01*
X15423900Y339600D01*
X15439600Y302600D01*
X15447500Y260200D01*
Y217900D01*
X15439600Y175500D01*
X15423900Y138500D01*
X15400200Y106800D01*
X15372700Y85600D01*
X15341200Y80300D01*
G01X15565600D02*
Y397800D01*
X15746600Y80300D01*
Y397800D01*
G01X15919800Y186100D02*
X16022200D01*
G01X16207200Y80300D02*
Y397800D01*
X16301600D01*
X16333100Y381900D01*
X16356800Y344900D01*
X16364600Y302600D01*
X16356800Y260200D01*
X16337100Y228500D01*
X16301600Y212600D01*
X16207200D01*
G01X16522100Y397800D02*
Y80300D01*
X16679500D01*
G01X16817300D02*
X16915700Y397800D01*
X17014100Y80300D01*
G01X16978700Y191400D02*
X16852700D01*
G01X17230600Y397800D02*
Y80300D01*
G01X17140100Y397800D02*
X17321100D01*
G01X17624200Y80300D02*
X17466800D01*
Y397800D01*
X17624200D01*
G01X17561200Y244300D02*
X17466800D01*
G01X17773800Y80300D02*
Y397800D01*
X17852500D01*
X17884000Y381900D01*
X17907600Y360800D01*
X17927300Y329000D01*
X17943100Y292000D01*
X17947000Y239000D01*
X17943100Y186100D01*
X17927300Y149100D01*
X17907600Y117300D01*
X17884000Y96200D01*
X17852500Y80300D01*
X17773800D01*
G01X14829600Y2461500D02*
Y-78500D01*
G01X15577400Y715300D02*
Y1032800D01*
X15671800D01*
X15703300Y1016900D01*
X15727000Y979900D01*
X15734800Y937600D01*
X15727000Y895200D01*
X15707300Y863500D01*
X15671800Y847600D01*
X15577400D01*
G01X15892300Y1032800D02*
Y715300D01*
X16049700D01*
G01X16187500D02*
X16285900Y1032800D01*
X16384300Y715300D01*
G01X16348900Y826400D02*
X16222900D01*
G01X16600800Y1032800D02*
Y715300D01*
G01X16510300Y1032800D02*
X16691300D01*
G01X16994400Y715300D02*
X16837000D01*
Y1032800D01*
X16994400D01*
G01X16931400Y879300D02*
X16837000D01*
G01X17144000Y715300D02*
Y1032800D01*
X17222700D01*
X17254200Y1016900D01*
X17277800Y995800D01*
X17297500Y964000D01*
X17313300Y927000D01*
X17317200Y874000D01*
X17313300Y821100D01*
X17297500Y784100D01*
X17277800Y752300D01*
X17254200Y731200D01*
X17222700Y715300D01*
X17144000D01*
G01X15577400Y1350200D02*
Y1667700D01*
X15671800D01*
X15703300Y1651800D01*
X15727000Y1614800D01*
X15734800Y1572500D01*
X15727000Y1530100D01*
X15707300Y1498400D01*
X15671800Y1482500D01*
X15577400D01*
G01X15892300Y1667700D02*
Y1350200D01*
X16049700D01*
G01X16187500D02*
X16285900Y1667700D01*
X16384300Y1350200D01*
G01X16348900Y1461300D02*
X16222900D01*
G01X16600800Y1667700D02*
Y1350200D01*
G01X16510300Y1667700D02*
X16691300D01*
G01X16994400Y1350200D02*
X16837000D01*
Y1667700D01*
X16994400D01*
G01X16931400Y1514200D02*
X16837000D01*
G01X17144000Y1350200D02*
Y1667700D01*
X17222700D01*
X17254200Y1651800D01*
X17277800Y1630700D01*
X17297500Y1598900D01*
X17313300Y1561900D01*
X17317200Y1508900D01*
X17313300Y1456000D01*
X17297500Y1419000D01*
X17277800Y1387200D01*
X17254200Y1366100D01*
X17222700Y1350200D01*
X17144000D01*
G01X15577400Y1985300D02*
Y2302800D01*
X15671800D01*
X15703300Y2286900D01*
X15727000Y2249900D01*
X15734800Y2207600D01*
X15727000Y2165200D01*
X15707300Y2133500D01*
X15671800Y2117600D01*
X15577400D01*
G01X15892300Y2302800D02*
Y1985300D01*
X16049700D01*
G01X16187500D02*
X16285900Y2302800D01*
X16384300Y1985300D01*
G01X16348900Y2096400D02*
X16222900D01*
G01X16600800Y2302800D02*
Y1985300D01*
G01X16510300Y2302800D02*
X16691300D01*
G01X16994400Y1985300D02*
X16837000D01*
Y2302800D01*
X16994400D01*
G01X16931400Y2149300D02*
X16837000D01*
G01X17144000Y1985300D02*
Y2302800D01*
X17222700D01*
X17254200Y2286900D01*
X17277800Y2265800D01*
X17297500Y2234000D01*
X17313300Y2197000D01*
X17317200Y2144000D01*
X17313300Y2091100D01*
X17297500Y2054100D01*
X17277800Y2022300D01*
X17254200Y2001200D01*
X17222700Y1985300D01*
X17144000D01*
G01X18057300Y2461500D02*
Y-78500D01*
G01X18726400Y1985300D02*
X18694900Y1990600D01*
X18667400Y2011800D01*
X18643700Y2043500D01*
X18628000Y2080500D01*
X18620100Y2122900D01*
Y2165200D01*
X18628000Y2207600D01*
X18643700Y2244600D01*
X18667400Y2276300D01*
X18694900Y2297500D01*
X18726400Y2302800D01*
X18757900Y2297500D01*
X18785400Y2276300D01*
X18809100Y2244600D01*
X18824800Y2207600D01*
X18832700Y2165200D01*
Y2122900D01*
X18824800Y2080500D01*
X18809100Y2043500D01*
X18785400Y2011800D01*
X18757900Y1990600D01*
X18726400Y1985300D01*
G01X18757900Y2070000D02*
X18805100Y1985300D01*
G01X19041300Y2302800D02*
Y1985300D01*
G01X18950800Y2302800D02*
X19131800D01*
G01X19356200Y1985300D02*
Y2128200D01*
X19277500Y2302800D01*
G01X19434900D02*
X19356200Y2128200D01*
G01X19088500Y80300D02*
Y397800D01*
X18942900Y170300D01*
X19139700D01*
G01X19088500Y715300D02*
Y1032800D01*
X18942900Y805300D01*
X19139700D01*
G01X19088500Y1350200D02*
Y1667700D01*
X18942900Y1440200D01*
X19139700D01*
M02*
