G04 ================== begin FILE IDENTIFICATION RECORD ==================*
G04 Layout Name:  C:/Users/user/Desktop/workspace/ex2_rlc/allegro/ex2_rlc.brd*
G04 Film Name:    SilkT*
G04 File Format:  Gerber RS274X*
G04 File Origin:  Cadence Allegro 17.2-S038*
G04 Origin Date:  Thu Jul 11 11:34:39 2019*
G04 *
G04 Layer:  REF DES/SILKSCREEN_TOP*
G04 Layer:  PACKAGE GEOMETRY/SILKSCREEN_TOP*
G04 Layer:  BOARD GEOMETRY/SILKSCREEN_TOP*
G04 *
G04 Offset:    (0.000 0.000)*
G04 Mirror:    No*
G04 Mode:      Positive*
G04 Rotation:  0*
G04 FullContactRelief:  No*
G04 UndefLineWidth:     0.200*
G04 ================== end FILE IDENTIFICATION RECORD ====================*
%FSLAX25Y25*MOMM*%
%IR0*IPPOS*OFA0.00000B0.00000*MIA0B0*SFA1.00000B1.00000*%
%ADD10C,.2*%
G75*
%LPD*%
G75*
G54D10*
G01X1676400Y3429000D02*
X2387600D01*
Y3175000D01*
X1676400D01*
Y3429000D01*
G01X1905000Y1651000D02*
Y1905000D01*
X2413000D01*
Y1651000D01*
X1905000D01*
G01X1902000Y1933400D02*
X1906900Y1925600D01*
X1912700Y1920300D01*
X1919600Y1917700D01*
X1927300Y1920300D01*
X1933200Y1925600D01*
X1939000Y1933400D01*
X1941000Y1943900D01*
Y1996400D01*
G01X2000200Y1917700D02*
Y1996400D01*
X1988500Y1980700D01*
G01Y1917700D02*
X2011900D01*
G01X2146300Y3152600D02*
X2225000D01*
Y3128200D01*
X2221100Y3120400D01*
X2215800Y3115600D01*
X2205300Y3113600D01*
X2194800Y3115600D01*
X2188300Y3121400D01*
X2184300Y3128200D01*
Y3152600D01*
G01Y3128200D02*
X2146300Y3113600D01*
G01Y3054400D02*
X2225000D01*
X2209300Y3066100D01*
G01X2146300D02*
Y3042700D01*
G01X3406600Y1663700D02*
Y1585000D01*
X3382200D01*
X3374400Y1588900D01*
X3369600Y1594200D01*
X3367600Y1604700D01*
X3369600Y1615200D01*
X3375400Y1621700D01*
X3382200Y1625700D01*
X3406600D01*
G01X3382200D02*
X3367600Y1663700D01*
G01X3326900Y1598100D02*
X3321100Y1590200D01*
X3314200Y1586300D01*
X3306500Y1585000D01*
X3296700Y1587600D01*
X3289900Y1594200D01*
X3288000Y1602100D01*
X3288900Y1609900D01*
X3292800Y1616500D01*
X3312300Y1629600D01*
X3321100Y1638800D01*
X3326900Y1651900D01*
X3328800Y1663700D01*
X3288000D01*
G01X3683000Y2133600D02*
Y1422400D01*
X3429000D01*
Y2133600D01*
X3683000D01*
G01X3598700Y3482300D02*
Y3403600D01*
X3637700D01*
G01X3696900D02*
Y3482300D01*
X3685200Y3466600D01*
G01Y3403600D02*
X3708600D01*
G01X3708400Y3213100D02*
Y3390900D01*
X3911600D01*
Y3213100D01*
X3708400D01*
G01X5588000Y1651000D02*
G03I-254000J0D01*
G01X5871400Y1306000D02*
X5881000Y1299600D01*
X5892300Y1295400D01*
X5905100D01*
X5919600Y1301800D01*
X5930900Y1312300D01*
X5938900Y1325000D01*
X5945400Y1346200D01*
X5947000Y1365300D01*
X5943700Y1384300D01*
X5938900Y1397000D01*
X5929300Y1409700D01*
X5918000Y1418200D01*
X5906800Y1422400D01*
X5895500D01*
X5884200Y1418200D01*
X5874600Y1411800D01*
X5866500Y1403400D01*
G01X5777300Y1422400D02*
Y1295400D01*
X5796600Y1320800D01*
G01Y1422400D02*
X5758000D01*
M02*
